<?xml version="1.0" encoding="UTF-8"?>
<!DOCTYPE svg PUBLIC "-//W3C//DTD SVG 1.1//EN" "http://www.w3.org/Graphics/SVG/1.1/DTD/svg11.dtd">
<svg xmlns="http://www.w3.org/2000/svg" version="1.1" width="597px" height="239px" style="shape-rendering:geometricPrecision; text-rendering:geometricPrecision; image-rendering:optimizeQuality; fill-rule:evenodd; clip-rule:evenodd" xmlns:xlink="http://www.w3.org/1999/xlink">
<g><path style="opacity:0.982" fill="#fefffe" d="M 417.5,0.5 C 423.842,0.333794 430.175,0.500461 436.5,1C 465.833,34.6667 495.167,68.3333 524.5,102C 489.722,99.3493 456.056,104.349 423.5,117C 378.306,135.248 337.306,160.081 300.5,191.5C 298.144,151.523 296.644,111.523 296,71.5C 327.348,32.2402 367.848,8.57352 417.5,0.5 Z"/></g>
<g><path style="opacity:0.984" fill="#fefffe" d="M 169.5,37.5 C 213.267,35.8141 253.434,46.8141 290,70.5C 290.667,109.5 290.667,148.5 290,187.5C 269.528,170.847 246.361,159.347 220.5,153C 189.008,144.897 157.008,140.23 124.5,139C 95.7919,138.274 67.1253,138.607 38.5,140C 72.5,107.333 106.5,74.6667 140.5,42C 150.17,39.7531 159.837,38.2531 169.5,37.5 Z"/></g>
<g><path style="opacity:0.919" fill="#fefffe" d="M 496.5,115.5 C 505.839,115.334 515.173,115.5 524.5,116C 530.928,120.423 536.761,125.59 542,131.5C 543.289,133.055 543.956,134.721 544,136.5C 499.409,130.76 455.909,135.594 413.5,151C 440.54,145.871 467.873,142.704 495.5,141.5C 506.268,141.786 516.935,142.953 527.5,145C 535.652,146.903 542.319,151.07 547.5,157.5C 545.5,157.833 543.5,158.167 541.5,158.5C 498.424,155.387 455.424,156.22 412.5,161C 380.573,164.301 350.573,172.801 322.5,186.5C 373.388,145.733 431.388,122.066 496.5,115.5 Z"/></g>
<g><path style="opacity:0.877" fill="#fefffe" d="M 73.5,149.5 C 121.655,147.377 168.988,152.544 215.5,165C 238.434,171.803 259.768,181.803 279.5,195C 201.898,164.758 121.564,154.591 38.5,164.5C 38.5,160.5 38.5,156.5 38.5,152.5C 50.3194,151.546 61.9861,150.546 73.5,149.5 Z"/></g>
<g><path style="opacity:0.96" fill="#fefffe" d="M 82.5,168.5 C 132.626,167.014 181.959,172.514 230.5,185C 245.517,189.006 260.184,194.006 274.5,200C 195.51,202.5 116.51,204.666 37.5,206.5C 37.0777,195.597 36.411,184.763 35.5,174C 51.1914,171.225 66.8581,169.391 82.5,168.5 Z"/></g>
<g><path style="opacity:0.945" fill="#fefffe" d="M 484.5,168.5 C 507.846,168.291 531.179,168.625 554.5,169.5C 554.167,180.833 553.833,192.167 553.5,203.5C 496.471,195.016 439.137,192.183 381.5,195C 366.155,195.859 350.822,196.525 335.5,197C 383.964,180.592 433.631,171.092 484.5,168.5 Z"/></g>
<g><path style="opacity:0.946" fill="#fefffe" d="M 596.5,236.5 C 596.5,237.167 596.5,237.833 596.5,238.5C 591.167,238.5 585.833,238.5 580.5,238.5C 496.366,232.304 412.033,227.138 327.5,223C 315.157,231.604 301.491,234.604 286.5,232C 279.07,230.58 272.07,228.08 265.5,224.5C 183.353,229.139 101.353,233.805 19.5,238.5C 13.1667,238.5 6.83333,238.5 0.5,238.5C 9.49824,225.866 18.9982,213.533 29,201.5C 29.4992,206.155 29.6658,210.821 29.5,215.5C 110.472,211.796 191.472,208.963 272.5,207C 285.075,213.132 298.075,214.466 311.5,211C 314.29,210.439 316.623,209.106 318.5,207C 323,206.833 327.5,206.667 332,206.5C 410.492,209.78 488.992,212.78 567.5,215.5C 567.169,207.804 567.503,200.138 568.5,192.5C 577.858,207.231 587.191,221.898 596.5,236.5 Z"/></g>
</svg>
